# xmcd
#
# Track frame offsets:
#	150
#	12737
#	27069
#	40120
#	55897
#	69734
#	81230
#	96456
#	105713
#	117902
#	131190
#	144788
#	158065
#	173657
#	186936
#	200167
#	213369
#	229733
#
# Disc length: 3253 seconds
#
# Revision: 0
# Processed by: cddbd v1.5.2PL0 Copyright (c) Steve Scherf et al.
# Submitted via: EasyCDDAExtractor 16.0.6.1
#
DISCID=020cb312
DTITLE=Gabriel Gava - Gabriel Gava Fiorino
DYEAR=2012
DGENRE=Sertanejo
TTITLE0=Te Esquecer Jamias
TTITLE1=Fiorino
TTITLE2=Na Mesma Sintonia
TTITLE3=Tome Amor
TTITLE4=Pagando Promessa
TTITLE5=Se Eu Não Lembro, Não Fiz
TTITLE6=Teatro
TTITLE7=Papapapow
TTITLE8=Correio
TTITLE9=Máquina do Amor
TTITLE10=Sei Que é Preciso
TTITLE11=Coração Vira Lata
TTITLE12=Nasci Pra Te Amar
TTITLE13=Beijo Roubado
TTITLE14=Máquina do Tempo
TTITLE15=O Pagador
TTITLE16=Dez Mandamentos
TTITLE17=Tudo Combinado
EXTD=
EXTT0=
EXTT1=
EXTT2=
EXTT3=
EXTT4=
EXTT5=
EXTT6=
EXTT7=
EXTT8=
EXTT9=
EXTT10=
EXTT11=
EXTT12=
EXTT13=
EXTT14=
EXTT15=
EXTT16=
EXTT17=
PLAYORDER=
